<svg width="72" height="72" viewBox="0 0 72 72" fill="none" xmlns="http://www.w3.org/2000/svg">
<path d="M36 2C36 2 36.1095 20.796 43.6777 28.3643C51.2435 35.9295 69.9864 36 70 36C69.9858 36.0001 51.2432 36.1123 43.6777 43.6777C36.1096 51.2459 36 70 36 70C36 70 35.8427 51.246 28.2744 43.6777C20.7061 36.1095 2 36 2 36C2 36 21.7537 34.9745 28.3643 28.3643C34.9747 21.7539 36 2 36 2Z" fill="#3580F2"/>
<path d="M13 48C13 48 18.2056 47.9861 21.2393 51.0215C24.2729 54.057 23.9932 59 23.9932 59C17.9218 59 13 54.0713 13 48Z" fill="#3580F2"/>
<path d="M59 48.0068C59 54.0782 54.0713 59 48 59C48 59 47.9862 53.7944 51.0215 50.7607C54.0561 47.728 58.9969 48.0067 59 48.0068Z" fill="#3580F2"/>
<path d="M48.0068 13C54.0782 13 59 17.9287 59 24C58.9949 24 53.7929 24.0124 50.7607 20.9785C47.7271 17.943 48.0068 13 48.0068 13Z" fill="#3580F2"/>
<path d="M24 13C24 13.0026 24.0131 18.2063 20.9785 21.2393C17.943 24.2729 13 23.9932 13 23.9932C13 17.9218 17.9287 13 24 13Z" fill="#3580F2"/>
</svg>

